<svg xmlns="http://www.w3.org/2000/svg" xmlns:xlink="http://www.w3.org/1999/xlink" width="2500" viewBox="0 0 1874.88 467.999983" height="624" preserveAspectRatio="xMidYMid meet"><path fill="#1d1d1b" d="M 1259.625 180.761719 C 1229.585938 184.496094 1207.4375 201.554688 1199.292969 227.015625 C 1193.691406 244.328125 1194.371094 260.792969 1201.414062 277.511719 C 1209.730469 297.285156 1227.632812 311.375 1251.394531 316.722656 C 1258.269531 318.332031 1276.003906 318.417969 1283.132812 317.058594 C 1310.710938 311.628906 1329.972656 294.484375 1337.949219 268.515625 C 1339.816406 262.320312 1340.070312 260.453125 1340.070312 249.421875 C 1340.070312 238.386719 1339.816406 236.519531 1337.949219 230.324219 C 1330.058594 204.695312 1311.472656 187.804688 1284.914062 182.203125 C 1279.398438 181.101562 1264.292969 180.253906 1259.625 180.761719 Z M 1276.425781 214.453125 C 1286.355469 217.085938 1295.773438 223.535156 1300.101562 231.089844 C 1306.804688 242.460938 1306.550781 257.484375 1299.59375 268.347656 C 1287.121094 287.949219 1258.605469 291.175781 1241.464844 274.878906 C 1227.210938 261.300781 1226.699219 239.746094 1240.277344 225.0625 C 1249.359375 215.386719 1263.785156 211.230469 1276.425781 214.453125 Z M 1276.425781 214.453125 " fill-opacity="1" fill-rule="nonzero"></path><path fill="#1d1d1b" d="M 1406.429688 180.761719 C 1376.390625 184.496094 1354.242188 201.554688 1346.097656 227.015625 C 1340.496094 244.328125 1341.175781 260.792969 1348.21875 277.511719 C 1356.535156 297.285156 1374.4375 311.375 1398.199219 316.722656 C 1405.070312 318.332031 1422.808594 318.417969 1429.933594 317.058594 C 1457.515625 311.628906 1476.777344 294.484375 1484.753906 268.515625 C 1486.621094 262.320312 1486.875 260.453125 1486.875 249.421875 C 1486.875 238.386719 1486.621094 236.519531 1484.753906 230.324219 C 1476.863281 204.695312 1458.277344 187.804688 1431.71875 182.203125 C 1426.203125 181.101562 1411.097656 180.253906 1406.429688 180.761719 Z M 1423.316406 214.453125 C 1433.328125 217.085938 1442.664062 223.535156 1446.992188 231.089844 C 1453.695312 242.460938 1453.441406 257.484375 1446.484375 268.347656 C 1434.007812 287.949219 1405.496094 291.175781 1388.355469 274.878906 C 1374.097656 261.300781 1373.589844 239.746094 1387.167969 225.0625 C 1396.160156 215.386719 1410.585938 211.230469 1423.316406 214.453125 Z M 1423.316406 214.453125 " fill-opacity="1" fill-rule="nonzero"></path><path fill="#1d1d1b" d="M 1604.148438 181.1875 C 1586.667969 183.730469 1573.515625 194.933594 1569.273438 211.058594 C 1565.199219 226.25 1568.085938 241.78125 1576.230469 249.335938 C 1581.066406 253.832031 1586.839844 256.464844 1602.707031 261.554688 C 1618.066406 266.480469 1621.542969 268.601562 1623.15625 273.777344 C 1624.9375 279.71875 1620.527344 286.847656 1613.824219 288.714844 C 1610.171875 289.734375 1603.300781 289.734375 1598.71875 288.628906 C 1593.710938 287.441406 1584.714844 283.027344 1580.898438 279.71875 C 1579.199219 278.105469 1577.25 276.917969 1576.910156 276.917969 C 1576.570312 276.917969 1574.617188 279.804688 1572.75 283.367188 C 1570.121094 288.375 1569.273438 289.476562 1569.101562 288.121094 L 1568.847656 286.421875 L 1528.03125 286.421875 L 1528.03125 183.5625 L 1494.257812 183.5625 L 1494.257812 315.449219 L 1568.761719 315.449219 L 1568.761719 311.796875 C 1568.761719 309.847656 1568.933594 308.234375 1569.101562 308.234375 C 1569.273438 308.234375 1572.328125 309.675781 1575.890625 311.289062 C 1586.921875 316.464844 1593.964844 317.992188 1607.628906 317.992188 C 1620.949219 317.992188 1627.230469 316.804688 1635.460938 312.816406 C 1641.996094 309.675781 1650.820312 300.933594 1653.789062 294.824219 C 1659.644531 282.605469 1660.496094 266.140625 1655.574219 255.699219 C 1654.722656 253.75 1651.839844 249.929688 1649.125 247.296875 C 1643.351562 241.527344 1637.160156 238.386719 1621.289062 233.296875 C 1615.011719 231.34375 1608.730469 228.96875 1607.289062 228.117188 C 1602.195312 224.976562 1601.179688 218.105469 1605.167969 213.777344 C 1612.125 206.308594 1624.515625 206.984375 1637.414062 215.558594 L 1639.957031 217.171875 L 1646.832031 204.015625 C 1650.480469 196.886719 1653.535156 190.859375 1653.367188 190.777344 C 1652.601562 190.011719 1643.015625 186.191406 1637.582031 184.496094 C 1626.128906 180.929688 1614.078125 179.660156 1604.148438 181.1875 Z M 1604.148438 181.1875 " fill-opacity="1" fill-rule="nonzero"></path><path fill="#1d1d1b" d="M 655.4375 230.75 L 655.4375 317.65625 L 686.15625 317.65625 C 703.042969 317.65625 720.691406 317.144531 725.273438 316.636719 C 763.207031 311.96875 791.210938 288.96875 800.203125 255.191406 C 803.175781 243.988281 803.851562 224.300781 801.730469 212.585938 C 797.402344 189.84375 785.609375 171.511719 767.449219 159.121094 C 759.300781 153.519531 752.003906 150.464844 740.292969 147.238281 C 731.128906 144.777344 729.6875 144.777344 693.199219 144.269531 L 655.519531 143.84375 L 655.519531 230.75 Z M 722.472656 179.320312 C 746.320312 184.410156 762.1875 204.355469 762.1875 229.304688 C 762.101562 245.855469 757.011719 260.113281 747.507812 269.535156 C 738.089844 279.039062 724.085938 283.621094 704.570312 283.707031 L 695.320312 283.707031 L 695.320312 177.960938 L 705.585938 177.960938 C 711.1875 177.960938 718.742188 178.640625 722.472656 179.320312 Z M 722.472656 179.320312 " fill-opacity="1" fill-rule="nonzero"></path><path fill="#1d1d1b" d="M 816.074219 230.835938 L 816.074219 317.65625 L 889.21875 317.570312 L 962.28125 317.570312 L 981.121094 291.089844 C 991.558594 276.664062 1000.300781 264.78125 1000.554688 264.78125 C 1000.976562 264.78125 1009.71875 276.664062 1020.070312 291.261719 L 1038.996094 317.738281 L 1062.753906 317.738281 C 1075.738281 317.738281 1086.429688 317.398438 1086.429688 317.144531 C 1086.429688 316.804688 1072.429688 297.285156 1055.542969 273.777344 L 1024.652344 231.003906 L 1054.183594 189.757812 C 1070.476562 167.183594 1084.648438 147.746094 1085.582031 146.644531 C 1087.449219 144.777344 1087.449219 145.03125 1087.449219 162.429688 L 1087.449219 180.082031 L 1123.429688 180.082031 L 1123.429688 317.738281 L 1166.367188 317.738281 L 1166.367188 180.082031 L 1187.328125 179.914062 L 1208.203125 179.574219 L 1197 161.921875 L 1185.800781 144.269531 L 1112.480469 144.183594 L 1039.078125 144.183594 L 1020.242188 170.664062 C 1009.804688 185.089844 1001.0625 196.972656 1000.808594 197.140625 C 1000.46875 197.140625 991.730469 185.261719 981.375 170.664062 L 962.453125 144.183594 L 816.242188 144.183594 L 816.242188 230.835938 Z M 945.140625 187.382812 C 961.945312 210.636719 975.691406 230.15625 975.691406 230.75 C 975.691406 231.34375 961.945312 251.03125 945.058594 274.457031 L 914.339844 317.058594 L 914 300.425781 L 913.828125 283.792969 L 855.957031 283.792969 L 855.957031 244.835938 L 902.796875 244.835938 L 902.796875 211.910156 L 855.957031 211.910156 L 855.957031 177.960938 L 913.828125 177.960938 L 913.828125 161.496094 C 913.828125 152.414062 914 145.03125 914.253906 145.03125 C 914.507812 145.03125 928.339844 164.128906 945.140625 187.382812 Z M 945.140625 187.382812 " fill-opacity="1" fill-rule="nonzero"></path><path fill="#05a3c9" d="M 352.492188 28.761719 C 325.339844 42.9375 303.019531 54.902344 303.105469 55.410156 C 303.105469 56.683594 368.363281 89.699219 370.652344 89.613281 C 371.671875 89.613281 379.308594 86.046875 387.625 81.804688 L 402.730469 74.082031 L 419.191406 82.570312 L 435.652344 91.054688 L 462.640625 78.917969 C 503.199219 60.671875 507.445312 58.636719 506.765625 58.042969 C 505.917969 57.109375 491.320312 49.300781 451.777344 28.507812 C 432.683594 18.492188 414.183594 8.5625 410.621094 6.613281 C 407.058594 4.574219 403.664062 3.046875 403.070312 3.046875 C 402.472656 3.046875 379.648438 14.589844 352.492188 28.761719 Z M 233.269531 90.546875 L 204.925781 105.144531 L 204.925781 169.304688 C 204.925781 204.609375 205.265625 233.464844 205.773438 233.464844 C 206.199219 233.464844 220.113281 227.4375 236.746094 220.054688 L 266.871094 206.648438 L 266.871094 139.007812 L 281.550781 146.984375 C 292.921875 153.179688 304.207031 159.289062 315.578125 165.484375 L 334.925781 175.925781 L 343.5 172.019531 C 348.929688 169.558594 354.273438 167.097656 359.621094 164.636719 C 363.777344 162.683594 373.960938 158.101562 382.277344 154.453125 C 390.59375 150.804688 398.230469 147.070312 399.335938 146.21875 C 400.777344 145.117188 383.125 135.355469 334.078125 110.152344 C 297.082031 91.140625 265.597656 75.695312 264.15625 75.78125 C 262.714844 75.863281 248.796875 82.484375 233.269531 90.546875 Z M 511.773438 94.621094 C 492.507812 103.363281 476.726562 110.832031 476.726562 111.253906 C 476.726562 111.679688 487.246094 117.960938 500.0625 125.171875 C 512.960938 132.386719 523.398438 138.667969 523.398438 139.175781 C 523.398438 139.683594 512.027344 145.203125 498.109375 151.398438 C 484.191406 157.675781 449.0625 173.546875 419.957031 186.703125 L 322.625 230.75 C 298.097656 241.78125 276.035156 251.796875 273.574219 252.898438 C 223.59375 275.558594 209.761719 281.839844 207.894531 282.941406 C 206.027344 284.046875 205.605469 290.328125 205.265625 321.984375 L 204.839844 359.75 L 230.128906 372.648438 L 255.414062 385.550781 L 290.546875 369.679688 C 309.808594 360.9375 325.679688 353.382812 325.679688 352.789062 C 325.679688 352.195312 322.113281 349.90625 317.785156 347.613281 C 313.457031 345.320312 304.464844 340.230469 297.757812 336.324219 C 291.140625 332.421875 284.523438 328.855469 283.078125 328.347656 C 281.636719 327.839844 280.449219 327.074219 280.449219 326.480469 C 280.449219 325.972656 295.894531 318.589844 314.816406 310.1875 C 351.476562 293.804688 379.476562 281.160156 439.640625 253.917969 C 466.542969 241.78125 493.441406 229.5625 520.425781 217.425781 C 544.101562 206.730469 571.597656 194.253906 581.523438 189.671875 L 599.601562 181.355469 L 600.023438 143.164062 L 600.449219 104.972656 L 574.820312 91.90625 C 560.734375 84.691406 548.601562 78.75 548.007812 78.75 C 547.328125 78.75 531.035156 85.964844 511.773438 94.621094 Z M 592.8125 232.445312 C 588.992188 234.3125 581.523438 237.792969 576.179688 240.167969 C 570.832031 242.546875 560.648438 247.128906 553.605469 250.355469 L 540.792969 256.210938 L 540.539062 289.734375 C 540.367188 308.148438 539.691406 323.171875 539.011719 323.085938 C 537.484375 322.832031 513.46875 310.527344 489.285156 297.539062 C 471.804688 288.207031 470.699219 287.78125 466.628906 289.816406 C 464.25 291.003906 450.078125 297.371094 435.144531 303.90625 C 420.210938 310.527344 407.480469 316.296875 406.886719 316.890625 C 406.292969 317.398438 436.332031 333.695312 473.753906 353.128906 L 541.640625 388.433594 L 570.664062 373.414062 C 586.617188 365.179688 600.195312 357.628906 600.789062 356.695312 C 602.230469 354.570312 602.0625 228.796875 600.703125 228.96875 C 600.109375 229.050781 596.542969 230.578125 592.8125 232.445312 Z M 432.089844 380.03125 C 427.082031 382.15625 421.992188 384.359375 416.984375 386.566406 C 401.796875 393.101562 404.765625 393.355469 386.691406 384.359375 C 374.640625 378.335938 369.464844 376.554688 367.171875 377.402344 C 365.476562 378.082031 350.964844 384.617188 334.84375 391.914062 C 318.804688 399.210938 305.058594 405.238281 304.378906 405.238281 C 297.589844 405.238281 308.875 411.941406 352.152344 433.753906 L 402.898438 459.382812 L 424.28125 448.859375 C 435.992188 443.089844 459.753906 431.460938 476.894531 423.0625 C 494.121094 414.660156 507.953125 407.613281 507.699219 407.273438 C 507.445312 407.019531 493.019531 399.636719 475.621094 390.8125 L 444.054688 374.855469 Z M 432.089844 380.03125 " fill-opacity="1" fill-rule="evenodd"></path></svg>