<svg xmlns="http://www.w3.org/2000/svg" xmlns:xlink="http://www.w3.org/1999/xlink" width="230" zoomAndPan="magnify" viewBox="0 0 172.5 74.999997" height="100" preserveAspectRatio="xMidYMid meet" version="1.0"><defs><g/><clipPath id="d29916ab70"><path d="M 85 28 L 120 28 L 120 74.890625 L 85 74.890625 Z M 85 28 " clip-rule="nonzero"/></clipPath></defs><g fill="#000000" fill-opacity="1"><g transform="translate(3.969172, 58.965831)"><g><path d="M 2.828125 -20.53125 C 2.828125 -26.550781 4.507812 -31.566406 7.875 -35.578125 C 11.238281 -39.585938 15.238281 -41.59375 19.875 -41.59375 C 24.519531 -41.59375 28.445312 -39.535156 31.65625 -35.421875 C 34.863281 -31.316406 36.46875 -26.410156 36.46875 -20.703125 C 36.46875 -14.410156 34.898438 -9.347656 31.765625 -5.515625 C 28.640625 -1.679688 24.679688 0.253906 19.890625 0.296875 C 15.242188 0.296875 11.238281 -1.648438 7.875 -5.546875 C 4.507812 -9.441406 2.828125 -14.4375 2.828125 -20.53125 Z M 7.203125 -20.46875 C 7.203125 -15.988281 8.445312 -12.132812 10.9375 -8.90625 C 13.4375 -5.6875 16.421875 -4.078125 19.890625 -4.078125 C 23.304688 -4.078125 26.191406 -5.695312 28.546875 -8.9375 C 30.910156 -12.1875 32.09375 -16.070312 32.09375 -20.59375 C 32.09375 -24.914062 30.898438 -28.769531 28.515625 -32.15625 C 26.140625 -35.539062 23.265625 -37.234375 19.890625 -37.234375 C 16.421875 -37.234375 13.4375 -35.519531 10.9375 -32.09375 C 8.445312 -28.675781 7.203125 -24.800781 7.203125 -20.46875 Z M 7.203125 -20.46875 "/></g></g></g><g fill="#000000" fill-opacity="1"><g transform="translate(43.375926, 58.965831)"><g><path d="M 3.484375 -1.65625 L 3.484375 -27.78125 C 3.484375 -28.84375 4.226562 -29.375 5.71875 -29.375 C 6.3125 -29.375 6.8125 -29.238281 7.21875 -28.96875 C 7.632812 -28.695312 7.84375 -28.300781 7.84375 -27.78125 L 7.84375 -20.40625 C 9.34375 -23.632812 11.003906 -26.070312 12.828125 -27.71875 C 14.660156 -29.375 17.09375 -30.203125 20.125 -30.203125 C 22.25 -30.203125 24.390625 -29.925781 26.546875 -29.375 C 27.691406 -28.832031 28.265625 -28.085938 28.265625 -27.140625 C 28.265625 -26.472656 28.125 -26 27.84375 -25.71875 C 27.570312 -25.445312 27.117188 -25.269531 26.484375 -25.1875 C 24.484375 -25.664062 22.851562 -25.90625 21.59375 -25.90625 C 18.6875 -25.90625 16.03125 -24.46875 13.625 -21.59375 C 11.226562 -18.71875 9.300781 -14.984375 7.84375 -10.390625 L 7.84375 -1.65625 C 7.84375 -1.144531 7.625 -0.738281 7.1875 -0.4375 C 6.757812 -0.144531 6.25 0 5.65625 0 C 4.207031 0 3.484375 -0.550781 3.484375 -1.65625 Z M 3.484375 -1.65625 "/></g></g></g><g fill="#000000" fill-opacity="1"><g transform="translate(72.223079, 58.965831)"><g><path d="M 3.546875 -1.65625 L 3.546875 -27.90625 C 3.546875 -28.96875 4.289062 -29.5 5.78125 -29.5 C 6.375 -29.5 6.875 -29.359375 7.28125 -29.078125 C 7.695312 -28.804688 7.90625 -28.414062 7.90625 -27.90625 L 7.90625 -1.65625 C 7.90625 -1.144531 7.6875 -0.738281 7.25 -0.4375 C 6.820312 -0.144531 6.3125 0 5.71875 0 C 4.269531 0 3.546875 -0.550781 3.546875 -1.65625 Z M 3.546875 -37.046875 L 3.546875 -38.109375 C 3.546875 -39.171875 4.289062 -39.703125 5.78125 -39.703125 C 6.375 -39.703125 6.875 -39.5625 7.28125 -39.28125 C 7.695312 -39.007812 7.90625 -38.617188 7.90625 -38.109375 L 7.90625 -37.046875 C 7.90625 -36.535156 7.6875 -36.132812 7.25 -35.84375 C 6.820312 -35.550781 6.3125 -35.40625 5.71875 -35.40625 C 4.269531 -35.40625 3.546875 -35.953125 3.546875 -37.046875 Z M 3.546875 -37.046875 "/></g></g></g><g clip-path="url(#d29916ab70)"><g fill="#000000" fill-opacity="1"><g transform="translate(83.667559, 58.965831)"><g><path d="M 2.234375 -10.734375 C 2.234375 -16.003906 4.296875 -20.546875 8.421875 -24.359375 C 12.554688 -28.179688 17.242188 -30.09375 22.484375 -30.09375 C 25.742188 -30.09375 28.59375 -28.929688 31.03125 -26.609375 L 31.03125 -27.96875 C 31.03125 -29.03125 31.78125 -29.5625 33.28125 -29.5625 C 33.863281 -29.5625 34.363281 -29.421875 34.78125 -29.140625 C 35.195312 -28.867188 35.40625 -28.476562 35.40625 -27.96875 L 35.40625 0.296875 C 35.40625 4.898438 33.910156 8.507812 30.921875 11.125 C 27.929688 13.738281 24.445312 15.046875 20.46875 15.046875 C 17.320312 15.046875 14.6875 14.492188 12.5625 13.390625 C 10.4375 12.285156 9.359375 10.457031 9.328125 7.90625 C 9.328125 7.28125 9.519531 6.796875 9.90625 6.453125 C 10.300781 6.117188 10.796875 5.953125 11.390625 5.953125 C 12.015625 5.953125 12.550781 6.128906 13 6.484375 C 13.457031 6.835938 13.6875 7.289062 13.6875 7.84375 C 13.6875 8.507812 13.875 9.050781 14.25 9.46875 C 14.625 9.882812 15.222656 10.171875 16.046875 10.328125 C 16.867188 10.484375 17.582031 10.578125 18.1875 10.609375 C 18.800781 10.648438 19.660156 10.671875 20.765625 10.671875 C 23.554688 10.671875 25.960938 9.828125 27.984375 8.140625 C 30.015625 6.453125 31.03125 3.972656 31.03125 0.703125 L 31.03125 -11.265625 C 27.84375 -7.140625 24.800781 -4.148438 21.90625 -2.296875 C 19.019531 -0.453125 16.046875 0.46875 12.984375 0.46875 C 10.148438 0.46875 7.648438 -0.679688 5.484375 -2.984375 C 3.316406 -5.285156 2.234375 -7.867188 2.234375 -10.734375 Z M 6.484375 -10.625 C 6.484375 -8.375 7.269531 -6.671875 8.84375 -5.515625 C 10.414062 -4.359375 12.085938 -3.78125 13.859375 -3.78125 C 15.910156 -3.78125 18.253906 -4.789062 20.890625 -6.8125 C 23.523438 -8.84375 25.71875 -11.101562 27.46875 -13.59375 C 29.21875 -16.09375 30.09375 -18.050781 30.09375 -19.46875 C 30.09375 -20.644531 29.75 -21.695312 29.0625 -22.625 C 28.375 -23.550781 27.523438 -24.226562 26.515625 -24.65625 C 25.515625 -25.09375 24.597656 -25.414062 23.765625 -25.625 C 22.941406 -25.84375 22.257812 -25.953125 21.71875 -25.953125 C 17.863281 -25.953125 14.359375 -24.410156 11.203125 -21.328125 C 8.054688 -18.242188 6.484375 -14.675781 6.484375 -10.625 Z M 6.484375 -10.625 "/></g></g></g></g><g fill="#000000" fill-opacity="1"><g transform="translate(122.60237, 58.965831)"><g><path d="M 3.546875 -1.65625 L 3.546875 -27.90625 C 3.546875 -28.96875 4.289062 -29.5 5.78125 -29.5 C 6.375 -29.5 6.875 -29.359375 7.28125 -29.078125 C 7.695312 -28.804688 7.90625 -28.414062 7.90625 -27.90625 L 7.90625 -1.65625 C 7.90625 -1.144531 7.6875 -0.738281 7.25 -0.4375 C 6.820312 -0.144531 6.3125 0 5.71875 0 C 4.269531 0 3.546875 -0.550781 3.546875 -1.65625 Z M 3.546875 -37.046875 L 3.546875 -38.109375 C 3.546875 -39.171875 4.289062 -39.703125 5.78125 -39.703125 C 6.375 -39.703125 6.875 -39.5625 7.28125 -39.28125 C 7.695312 -39.007812 7.90625 -38.617188 7.90625 -38.109375 L 7.90625 -37.046875 C 7.90625 -36.535156 7.6875 -36.132812 7.25 -35.84375 C 6.820312 -35.550781 6.3125 -35.40625 5.71875 -35.40625 C 4.269531 -35.40625 3.546875 -35.953125 3.546875 -37.046875 Z M 3.546875 -37.046875 "/></g></g></g><g fill="#000000" fill-opacity="1"><g transform="translate(134.04685, 58.965831)"><g><path d="M 3.546875 -1.53125 L 3.546875 -27.90625 C 3.546875 -28.414062 3.75 -28.804688 4.15625 -29.078125 C 4.570312 -29.359375 5.070312 -29.5 5.65625 -29.5 C 7.15625 -29.5 7.90625 -28.96875 7.90625 -27.90625 L 7.90625 -23.25 C 9.875 -25.375 12.253906 -27.054688 15.046875 -28.296875 C 17.835938 -29.535156 20.671875 -30.15625 23.546875 -30.15625 C 27.242188 -30.15625 30.335938 -29.003906 32.828125 -26.703125 C 35.328125 -24.398438 36.578125 -21.398438 36.578125 -17.703125 C 36.578125 -17.347656 36.566406 -15.546875 36.546875 -12.296875 C 36.523438 -9.054688 36.515625 -5.507812 36.515625 -1.65625 C 36.515625 -1.144531 36.296875 -0.738281 35.859375 -0.4375 C 35.429688 -0.144531 34.925781 0 34.34375 0 C 32.882812 0 32.15625 -0.550781 32.15625 -1.65625 L 32.15625 -17.171875 C 32.15625 -19.960938 31.160156 -22.101562 29.171875 -23.59375 C 27.191406 -25.09375 25.140625 -25.84375 23.015625 -25.84375 C 20.140625 -25.84375 17.195312 -24.890625 14.1875 -22.984375 C 11.175781 -21.078125 9.082031 -18.664062 7.90625 -15.75 L 7.90625 -1.53125 C 7.90625 -0.46875 7.15625 0.0625 5.65625 0.0625 C 5.070312 0.0625 4.570312 -0.0703125 4.15625 -0.34375 C 3.75 -0.625 3.546875 -1.019531 3.546875 -1.53125 Z M 3.546875 -1.53125 "/></g></g></g><g fill="#ffffff" fill-opacity="1"><g transform="translate(1.361715, 56.358374)"><g><path d="M 2.828125 -20.53125 C 2.828125 -26.550781 4.507812 -31.566406 7.875 -35.578125 C 11.238281 -39.585938 15.238281 -41.59375 19.875 -41.59375 C 24.519531 -41.59375 28.445312 -39.535156 31.65625 -35.421875 C 34.863281 -31.316406 36.46875 -26.410156 36.46875 -20.703125 C 36.46875 -14.410156 34.898438 -9.347656 31.765625 -5.515625 C 28.640625 -1.679688 24.679688 0.253906 19.890625 0.296875 C 15.242188 0.296875 11.238281 -1.648438 7.875 -5.546875 C 4.507812 -9.441406 2.828125 -14.4375 2.828125 -20.53125 Z M 7.203125 -20.46875 C 7.203125 -15.988281 8.445312 -12.132812 10.9375 -8.90625 C 13.4375 -5.6875 16.421875 -4.078125 19.890625 -4.078125 C 23.304688 -4.078125 26.191406 -5.695312 28.546875 -8.9375 C 30.910156 -12.1875 32.09375 -16.070312 32.09375 -20.59375 C 32.09375 -24.914062 30.898438 -28.769531 28.515625 -32.15625 C 26.140625 -35.539062 23.265625 -37.234375 19.890625 -37.234375 C 16.421875 -37.234375 13.4375 -35.519531 10.9375 -32.09375 C 8.445312 -28.675781 7.203125 -24.800781 7.203125 -20.46875 Z M 7.203125 -20.46875 "/></g></g></g><g fill="#ffffff" fill-opacity="1"><g transform="translate(40.768469, 56.358374)"><g><path d="M 3.484375 -1.65625 L 3.484375 -27.78125 C 3.484375 -28.84375 4.226562 -29.375 5.71875 -29.375 C 6.3125 -29.375 6.8125 -29.238281 7.21875 -28.96875 C 7.632812 -28.695312 7.84375 -28.300781 7.84375 -27.78125 L 7.84375 -20.40625 C 9.34375 -23.632812 11.003906 -26.070312 12.828125 -27.71875 C 14.660156 -29.375 17.09375 -30.203125 20.125 -30.203125 C 22.25 -30.203125 24.390625 -29.925781 26.546875 -29.375 C 27.691406 -28.832031 28.265625 -28.085938 28.265625 -27.140625 C 28.265625 -26.472656 28.125 -26 27.84375 -25.71875 C 27.570312 -25.445312 27.117188 -25.269531 26.484375 -25.1875 C 24.484375 -25.664062 22.851562 -25.90625 21.59375 -25.90625 C 18.6875 -25.90625 16.03125 -24.46875 13.625 -21.59375 C 11.226562 -18.71875 9.300781 -14.984375 7.84375 -10.390625 L 7.84375 -1.65625 C 7.84375 -1.144531 7.625 -0.738281 7.1875 -0.4375 C 6.757812 -0.144531 6.25 0 5.65625 0 C 4.207031 0 3.484375 -0.550781 3.484375 -1.65625 Z M 3.484375 -1.65625 "/></g></g></g><g fill="#ffffff" fill-opacity="1"><g transform="translate(69.615622, 56.358374)"><g><path d="M 3.546875 -1.65625 L 3.546875 -27.90625 C 3.546875 -28.96875 4.289062 -29.5 5.78125 -29.5 C 6.375 -29.5 6.875 -29.359375 7.28125 -29.078125 C 7.695312 -28.804688 7.90625 -28.414062 7.90625 -27.90625 L 7.90625 -1.65625 C 7.90625 -1.144531 7.6875 -0.738281 7.25 -0.4375 C 6.820312 -0.144531 6.3125 0 5.71875 0 C 4.269531 0 3.546875 -0.550781 3.546875 -1.65625 Z M 3.546875 -37.046875 L 3.546875 -38.109375 C 3.546875 -39.171875 4.289062 -39.703125 5.78125 -39.703125 C 6.375 -39.703125 6.875 -39.5625 7.28125 -39.28125 C 7.695312 -39.007812 7.90625 -38.617188 7.90625 -38.109375 L 7.90625 -37.046875 C 7.90625 -36.535156 7.6875 -36.132812 7.25 -35.84375 C 6.820312 -35.550781 6.3125 -35.40625 5.71875 -35.40625 C 4.269531 -35.40625 3.546875 -35.953125 3.546875 -37.046875 Z M 3.546875 -37.046875 "/></g></g></g><g fill="#ffffff" fill-opacity="1"><g transform="translate(81.060102, 56.358374)"><g><path d="M 2.234375 -10.734375 C 2.234375 -16.003906 4.296875 -20.546875 8.421875 -24.359375 C 12.554688 -28.179688 17.242188 -30.09375 22.484375 -30.09375 C 25.742188 -30.09375 28.59375 -28.929688 31.03125 -26.609375 L 31.03125 -27.96875 C 31.03125 -29.03125 31.78125 -29.5625 33.28125 -29.5625 C 33.863281 -29.5625 34.363281 -29.421875 34.78125 -29.140625 C 35.195312 -28.867188 35.40625 -28.476562 35.40625 -27.96875 L 35.40625 0.296875 C 35.40625 4.898438 33.910156 8.507812 30.921875 11.125 C 27.929688 13.738281 24.445312 15.046875 20.46875 15.046875 C 17.320312 15.046875 14.6875 14.492188 12.5625 13.390625 C 10.4375 12.285156 9.359375 10.457031 9.328125 7.90625 C 9.328125 7.28125 9.519531 6.796875 9.90625 6.453125 C 10.300781 6.117188 10.796875 5.953125 11.390625 5.953125 C 12.015625 5.953125 12.550781 6.128906 13 6.484375 C 13.457031 6.835938 13.6875 7.289062 13.6875 7.84375 C 13.6875 8.507812 13.875 9.050781 14.25 9.46875 C 14.625 9.882812 15.222656 10.171875 16.046875 10.328125 C 16.867188 10.484375 17.582031 10.578125 18.1875 10.609375 C 18.800781 10.648438 19.660156 10.671875 20.765625 10.671875 C 23.554688 10.671875 25.960938 9.828125 27.984375 8.140625 C 30.015625 6.453125 31.03125 3.972656 31.03125 0.703125 L 31.03125 -11.265625 C 27.84375 -7.140625 24.800781 -4.148438 21.90625 -2.296875 C 19.019531 -0.453125 16.046875 0.46875 12.984375 0.46875 C 10.148438 0.46875 7.648438 -0.679688 5.484375 -2.984375 C 3.316406 -5.285156 2.234375 -7.867188 2.234375 -10.734375 Z M 6.484375 -10.625 C 6.484375 -8.375 7.269531 -6.671875 8.84375 -5.515625 C 10.414062 -4.359375 12.085938 -3.78125 13.859375 -3.78125 C 15.910156 -3.78125 18.253906 -4.789062 20.890625 -6.8125 C 23.523438 -8.84375 25.71875 -11.101562 27.46875 -13.59375 C 29.21875 -16.09375 30.09375 -18.050781 30.09375 -19.46875 C 30.09375 -20.644531 29.75 -21.695312 29.0625 -22.625 C 28.375 -23.550781 27.523438 -24.226562 26.515625 -24.65625 C 25.515625 -25.09375 24.597656 -25.414062 23.765625 -25.625 C 22.941406 -25.84375 22.257812 -25.953125 21.71875 -25.953125 C 17.863281 -25.953125 14.359375 -24.410156 11.203125 -21.328125 C 8.054688 -18.242188 6.484375 -14.675781 6.484375 -10.625 Z M 6.484375 -10.625 "/></g></g></g><g fill="#ffffff" fill-opacity="1"><g transform="translate(119.994913, 56.358374)"><g><path d="M 3.546875 -1.65625 L 3.546875 -27.90625 C 3.546875 -28.96875 4.289062 -29.5 5.78125 -29.5 C 6.375 -29.5 6.875 -29.359375 7.28125 -29.078125 C 7.695312 -28.804688 7.90625 -28.414062 7.90625 -27.90625 L 7.90625 -1.65625 C 7.90625 -1.144531 7.6875 -0.738281 7.25 -0.4375 C 6.820312 -0.144531 6.3125 0 5.71875 0 C 4.269531 0 3.546875 -0.550781 3.546875 -1.65625 Z M 3.546875 -37.046875 L 3.546875 -38.109375 C 3.546875 -39.171875 4.289062 -39.703125 5.78125 -39.703125 C 6.375 -39.703125 6.875 -39.5625 7.28125 -39.28125 C 7.695312 -39.007812 7.90625 -38.617188 7.90625 -38.109375 L 7.90625 -37.046875 C 7.90625 -36.535156 7.6875 -36.132812 7.25 -35.84375 C 6.820312 -35.550781 6.3125 -35.40625 5.71875 -35.40625 C 4.269531 -35.40625 3.546875 -35.953125 3.546875 -37.046875 Z M 3.546875 -37.046875 "/></g></g></g><g fill="#ffffff" fill-opacity="1"><g transform="translate(131.439393, 56.358374)"><g><path d="M 3.546875 -1.53125 L 3.546875 -27.90625 C 3.546875 -28.414062 3.75 -28.804688 4.15625 -29.078125 C 4.570312 -29.359375 5.070312 -29.5 5.65625 -29.5 C 7.15625 -29.5 7.90625 -28.96875 7.90625 -27.90625 L 7.90625 -23.25 C 9.875 -25.375 12.253906 -27.054688 15.046875 -28.296875 C 17.835938 -29.535156 20.671875 -30.15625 23.546875 -30.15625 C 27.242188 -30.15625 30.335938 -29.003906 32.828125 -26.703125 C 35.328125 -24.398438 36.578125 -21.398438 36.578125 -17.703125 C 36.578125 -17.347656 36.566406 -15.546875 36.546875 -12.296875 C 36.523438 -9.054688 36.515625 -5.507812 36.515625 -1.65625 C 36.515625 -1.144531 36.296875 -0.738281 35.859375 -0.4375 C 35.429688 -0.144531 34.925781 0 34.34375 0 C 32.882812 0 32.15625 -0.550781 32.15625 -1.65625 L 32.15625 -17.171875 C 32.15625 -19.960938 31.160156 -22.101562 29.171875 -23.59375 C 27.191406 -25.09375 25.140625 -25.84375 23.015625 -25.84375 C 20.140625 -25.84375 17.195312 -24.890625 14.1875 -22.984375 C 11.175781 -21.078125 9.082031 -18.664062 7.90625 -15.75 L 7.90625 -1.53125 C 7.90625 -0.46875 7.15625 0.0625 5.65625 0.0625 C 5.070312 0.0625 4.570312 -0.0703125 4.15625 -0.34375 C 3.75 -0.625 3.546875 -1.019531 3.546875 -1.53125 Z M 3.546875 -1.53125 "/></g></g></g></svg>